<?xml version="1.0" encoding="utf-8"?>
<!-- Generator: Adobe Illustrator 16.0.0, SVG Export Plug-In . SVG Version: 6.00 Build 0)  -->
<!DOCTYPE svg PUBLIC "-//W3C//DTD SVG 1.1//EN" "http://www.w3.org/Graphics/SVG/1.1/DTD/svg11.dtd">
<svg version="1.1" id="Layer_1" xmlns="http://www.w3.org/2000/svg" xmlns:xlink="http://www.w3.org/1999/xlink" x="0px" y="0px"
	 width="300px" height="300px" viewBox="0 0 300 300" enable-background="new 0 0 300 300" xml:space="preserve">
<g id="XMLID_1_">
	<g>
		<path fill="#CB2027" d="M292.73,144.33H275.89l-0.17,0.01C272.33,78.41,217.78,25.98,151,25.98c-0.04,0-0.07,0-0.11,0V8.88
			C227.12,8.88,289.32,68.95,292.73,144.33z"/>
		<path fill="#41B649" d="M292.73,144.33c0.1,2.17,0.149,4.35,0.149,6.54c0,78.42-63.57,142-141.99,142
			c-78.42,0-141.99-63.58-141.99-142S72.47,8.88,150.89,8.88v17.1C81.96,26.04,26.11,81.94,26.11,150.87
			C26.11,219.85,82.02,275.77,151,275.77c68.97,0,124.89-55.92,124.89-124.899c0-2.19-0.06-4.37-0.17-6.53l0.17-0.01H292.73z"/>
	</g>
	<g>
		<path fill="none" stroke="#000000" stroke-miterlimit="10" d="M292.73,144.33c0.1,2.17,0.149,4.35,0.149,6.54
			c0,78.42-63.57,142-141.99,142c-78.42,0-141.99-63.58-141.99-142S72.47,8.88,150.89,8.88C227.12,8.88,289.32,68.95,292.73,144.33z
			"/>
		<path fill="none" stroke="#000000" stroke-miterlimit="10" d="M275.72,144.34c0.11,2.16,0.17,4.34,0.17,6.53
			c0,68.979-55.92,124.899-124.89,124.899c-68.98,0-124.89-55.92-124.89-124.899c0-68.93,55.85-124.83,124.78-124.89
			c0.04,0,0.07,0,0.11,0C217.78,25.98,272.33,78.41,275.72,144.34z"/>
		<polyline fill="none" stroke="#000000" stroke-miterlimit="10" points="275.89,144.33 292.73,144.33 293.25,144.33 		"/>
		<line fill="none" stroke="#000000" stroke-miterlimit="10" x1="150.89" y1="8.88" x2="150.89" y2="25.98"/>
	</g>
</g>
</svg>
