<?xml version="1.0" encoding="utf-8"?>
<!-- Generator: Adobe Illustrator 16.0.0, SVG Export Plug-In . SVG Version: 6.00 Build 0)  -->
<!DOCTYPE svg PUBLIC "-//W3C//DTD SVG 1.1//EN" "http://www.w3.org/Graphics/SVG/1.1/DTD/svg11.dtd">
<svg version="1.1" xmlns="http://www.w3.org/2000/svg" xmlns:xlink="http://www.w3.org/1999/xlink" x="0px" y="0px" width="300px"
	 height="300px" viewBox="0 0 300 300" enable-background="new 0 0 300 300" xml:space="preserve">
<g id="Layer_1" display="none">
	<g id="XMLID_1_" display="inline">
		<g>
			<path fill="#CB2027" d="M148.89,275.77v-0.02c0.7,0.01,1.4,0.02,2.11,0.02c68.97,0,124.89-55.92,124.89-124.899
				c0-68.97-55.92-124.89-124.89-124.89c-0.04,0-0.07,0-0.11,0V8.88c78.419,0,141.99,63.57,141.99,141.99s-63.57,142-141.99,142
				c-0.67,0-1.33,0-2-0.01V275.77z"/>
			<path fill="#41B649" d="M150.89,8.88v17.1C81.96,26.04,26.11,81.94,26.11,150.87c0,68.27,54.77,123.75,122.78,124.88v0.02v17.091
				C71.39,291.79,8.9,228.62,8.9,150.87C8.9,72.45,72.47,8.88,150.89,8.88z"/>
		</g>
		<g>
			<path fill="none" stroke="#000000" stroke-miterlimit="10" d="M150.89,8.88c78.419,0,141.99,63.57,141.99,141.99
				s-63.57,142-141.99,142c-0.67,0-1.33,0-2-0.01C71.39,291.79,8.9,228.62,8.9,150.87C8.9,72.45,72.47,8.88,150.89,8.88z"/>
			<path fill="none" stroke="#000000" stroke-miterlimit="10" d="M150.89,25.98c0.04,0,0.07,0,0.11,0
				c68.97,0,124.89,55.92,124.89,124.89c0,68.979-55.92,124.899-124.89,124.899c-0.71,0-1.41-0.01-2.11-0.02
				c-68.01-1.13-122.78-56.61-122.78-124.88C26.11,81.94,81.96,26.04,150.89,25.98z"/>
			<line fill="none" stroke="#000000" stroke-miterlimit="10" x1="150.89" y1="8.88" x2="150.89" y2="25.98"/>
			<polyline fill="none" stroke="#000000" stroke-miterlimit="10" points="148.89,275.77 148.89,292.86 148.89,292.87 			"/>
		</g>
	</g>
</g>
<g id="Layer_2">
	<g id="XMLID_2_">
		<g>
			<path fill="#41B649" d="M259.278,213.516l14.66,8.46c-24.57,42.381-70.43,70.891-122.94,70.891
				c-78.42,0-141.99-63.57-141.99-141.99s63.57-141.99,141.99-141.99v17.1c-68.93,0.06-124.78,55.96-124.78,124.89
				c0,68.98,55.91,124.89,124.89,124.89c46.17,0,86.48-25.05,108.09-62.3L259.278,213.516z"/>
			<path fill="#CB2027" d="M150.999,25.986v-17.1c78.419,0,141.99,63.57,141.99,141.99c0,25.91-6.939,50.19-19.05,71.1l-14.66-8.46
				l-0.08-0.05c10.69-18.399,16.8-39.78,16.8-62.59c0-68.97-55.92-124.89-124.89-124.89
				C151.068,25.986,151.038,25.986,150.999,25.986z"/>
		</g>
		<g>
			<path fill="none" stroke="#000000" stroke-miterlimit="10" d="M150.999,8.886c78.419,0,141.99,63.57,141.99,141.99
				c0,25.91-6.939,50.19-19.05,71.1c-24.57,42.381-70.43,70.891-122.94,70.891c-78.42,0-141.99-63.57-141.99-141.99
				S72.579,8.886,150.999,8.886z"/>
			<path fill="none" stroke="#000000" stroke-miterlimit="10" d="M150.999,25.986c0.04,0,0.07,0,0.11,0
				c68.97,0,124.89,55.92,124.89,124.89c0,22.81-6.109,44.19-16.8,62.59c-21.609,37.25-61.92,62.3-108.09,62.3
				c-68.98,0-124.89-55.909-124.89-124.89C26.218,81.946,82.068,26.046,150.999,25.986z"/>
			<line fill="none" stroke="#000000" stroke-miterlimit="10" x1="150.999" y1="8.886" x2="150.999" y2="25.986"/>
			<polyline fill="none" stroke="#000000" stroke-miterlimit="10" points="274.089,222.066 273.938,221.976 259.278,213.516 			"/>
		</g>
	</g>
</g>
</svg>
