<?xml version="1.0" encoding="utf-8"?>
<!-- Generator: Adobe Illustrator 16.0.0, SVG Export Plug-In . SVG Version: 6.00 Build 0)  -->
<!DOCTYPE svg PUBLIC "-//W3C//DTD SVG 1.1//EN" "http://www.w3.org/Graphics/SVG/1.1/DTD/svg11.dtd">
<svg version="1.1" id="Layer_1" xmlns="http://www.w3.org/2000/svg" xmlns:xlink="http://www.w3.org/1999/xlink" x="0px" y="0px"
	 width="284.98px" height="284.99px" viewBox="0 0 284.98 284.99" enable-background="new 0 0 284.98 284.99" xml:space="preserve">
<g id="XMLID_1_">
	<g>
		<path fill="#CB2027" d="M273.455,136.99h-15.512l-0.156,0.009c-3.123-60.839-53.375-109.22-114.888-109.22
			c-0.037,0-0.065,0-0.101,0V12C213.018,12,270.314,67.431,273.455,136.99z"/>
		<path fill="#41B649" d="M273.455,136.99c0.093,2.002,0.137,4.014,0.137,6.035c0,72.364-58.559,131.034-130.796,131.034
			C70.558,274.059,12,215.389,12,143.024C12,70.661,70.56,12,142.797,12v15.779C79.302,27.835,27.853,79.418,27.853,143.024
			c0,63.652,51.502,115.254,115.044,115.254c63.534,0,115.045-51.602,115.045-115.253c0-2.021-0.056-4.032-0.156-6.026l0.156-0.009
			L273.455,136.99L273.455,136.99z"/>
	</g>
	<g>
		<path fill="none" stroke="#000000" stroke-miterlimit="10" d="M273.455,136.99c0.093,2.002,0.137,4.014,0.137,6.035
			c0,72.364-58.559,131.034-130.796,131.034C70.558,274.059,12,215.389,12,143.024C12,70.661,70.56,12,142.797,12
			C213.018,12,270.314,67.431,273.455,136.99z"/>
		<path fill="none" stroke="#000000" stroke-miterlimit="10" d="M257.787,136.999c0.101,1.993,0.156,4.004,0.156,6.025
			c0,63.652-51.512,115.254-115.045,115.254c-63.542,0-115.044-51.602-115.044-115.254c0-63.606,51.447-115.189,114.944-115.245
			c0.036,0,0.064,0,0.101,0C204.412,27.779,254.664,76.16,257.787,136.999z"/>
		<polyline fill="none" stroke="#000000" stroke-miterlimit="10" points="257.943,136.99 273.455,136.99 273.934,136.99 		"/>
		<line fill="none" stroke="#000000" stroke-miterlimit="10" x1="142.797" y1="12" x2="142.797" y2="27.779"/>
	</g>
</g>
</svg>
